<?xml version="1.0" encoding="UTF-8" standalone="no"?>
<!-- Created with Inkscape (http://www.inkscape.org/) -->

<svg
   width="76.91861mm"
   height="77.300133mm"
   viewBox="0 0 76.91861 77.300133"
   version="1.1"
   id="svg5"
   xmlns="http://www.w3.org/2000/svg"
   xmlns:svg="http://www.w3.org/2000/svg">
  <defs
     id="defs2" />
  <g
     id="layer1"
     transform="translate(-56.367982,-43.119086)">
    <path
       style="fill:#000000;stroke-width:0.264583"
       id="path304"
       d="M 94.827867,61.991773 C 94.933787,61.754799 95.075392,61.530739 95.145626,61.280853 95.572227,59.763071 95.346717,58.125136 95.099245,56.601366 94.70015,54.143996 94.659031,54.335774 93.88446,51.859917 93.486458,51.018274 93.159928,50.138958 92.690454,49.334993 91.351459,47.041994 89.31527,44.844659 86.80811,43.816036 85.911472,43.44817 84.953522,43.145812 83.984644,43.122044 82.351935,43.081991 80.735653,43.458827 79.111157,43.627218 77.832648,44.189879 76.489056,44.623271 75.27563,45.315199 72.563703,46.861609 70.210714,48.989325 68.107247,51.268814 66.893132,52.584526 65.712403,53.940756 64.674252,55.399319 62.089025,59.031469 61.396628,61.053576 59.547556,65.091364 58.009282,69.729875 57.324233,71.049579 56.69194,75.91175 56.218152,79.555063 56.315127,82.701498 56.655416,86.339924 56.82391,88.141485 56.993682,89.949597 57.350229,91.723544 57.710872,93.517877 58.317927,95.253747 58.801777,97.018848 59.486903,98.676497 60.094698,100.36825 60.857155,101.99178 63.541002,107.70661 67.494051,113.76955 73.071436,117.04768 74.16134,117.68827 75.393329,118.04858 76.554276,118.54903 80.153991,119.00852 81.152819,119.55064 84.996837,117.76585 86.170224,117.22104 87.091731,116.22184 87.972724,115.27447 89.933041,113.16647 91.320225,110.62134 92.226018,107.90285 92.722162,106.41381 92.944655,104.84717 93.303975,103.31933 93.35886,101.73902 93.563703,100.1568 93.468633,98.578397 93.190427,93.959424 91.585088,89.271309 88.661085,85.648404 86.16635,82.557369 85.094513,82.344911 81.758818,80.428706 77.96268,79.3886 78.104253,78.979803 74.228657,79.618393 72.902362,79.836929 71.626536,80.293843 70.325477,80.631568 70.084158,80.726614 71.428292,84.139355 71.669607,84.044309 V 84.044309 C 73.505599,84.546605 75.320005,85.127227 77.064866,85.896382 77.809912,86.38829 78.616079,86.798243 79.299998,87.372103 81.597843,89.30017 83.515932,92.166184 84.257511,95.08385 84.855274,97.435676 84.684946,99.557097 84.671793,101.95168 84.237533,105.33443 84.415647,105.32323 83.349131,108.47386 83.069614,109.2996 82.759602,110.11915 82.369267,110.89864 82.121366,111.3937 81.490327,111.72639 81.444131,112.27811 81.418635,112.58261 82.438731,112.57446 82.211814,112.7791 81.907096,113.0539 81.393153,112.72185 80.983824,112.69323 80.393129,112.30002 79.754181,111.97108 79.211738,111.51359 77.498844,110.06898 75.938847,108.15136 74.642225,106.35789 72.030428,102.74529 69.84634,98.834397 68.32225,94.638591 67.474805,92.086878 66.218535,88.71983 65.859003,86.01813 65.676368,84.645723 65.702024,83.249091 65.759913,81.865796 65.952417,77.265726 67.043394,72.751453 68.525633,68.413112 69.148978,66.990072 69.699922,65.533072 70.395663,64.143991 71.084042,62.769611 71.880671,61.451364 72.672431,60.133826 73.432172,58.869565 74.179146,57.592479 75.048681,56.401063 75.817729,55.347329 76.698688,54.378358 77.576946,53.413756 79.501422,51.300082 79.932262,51.025222 81.938494,49.308878 81.950945,49.058418 81.767904,48.697662 81.975845,48.557501 82.654639,48.099968 84.037807,48.44078 84.622197,48.841185 85.429703,49.394466 86.58182,51.092133 87.067146,51.818716 87.497382,52.462825 87.889193,53.131787 88.300215,53.788324 89.175504,55.391567 89.588598,56.107939 90.38656,57.720908 91.134479,59.232716 91.71116,60.906346 92.942888,62.111658 92.951365,62.244947 94.836344,62.125059 94.827867,61.991773 Z" />
    <path
       style="fill:#000000;stroke-width:0.264583"
       id="path312"
       d="M 121.83118,43.69973 C 121.41227,43.682857 120.98942,43.589322 120.57446,43.64911 118.72733,43.915241 116.96524,44.739865 115.4153,45.740725 113.85645,46.747338 112.30446,47.794733 110.94305,49.055619 106.96672,52.738327 104.80112,56.386704 101.66004,60.845738 100.21826,63.788272 98.487078,66.605889 97.334708,69.673341 95.090338,75.647542 93.826638,82.812914 93.656138,89.182612 93.500388,95.001398 94.200338,100.90596 96.172918,106.41016 96.943048,108.55907 98.220628,110.49067 99.244478,112.53092 102.09218,115.84785 102.92,117.63711 106.94193,119.39944 110.30768,120.87424 113.52131,120.59507 117.03008,119.54071 119.84322,118.69538 122.42668,116.31989 124.64906,114.57402 125.6851,113.48876 126.79027,112.46554 127.75717,111.31825 130.77848,107.73327 133.04397,103.56005 133.26035,98.768765 133.45203,94.524222 132.5824,93.579455 131.02197,89.772104 128.61192,86.922893 127.75051,85.168222 124.12065,83.754492 121.07161,82.566973 118.64798,82.955839 115.53174,83.072618 115.19973,82.965473 113.68447,87.660835 114.01648,87.76798 V 87.76798 C 114.91314,87.982706 115.83669,88.106173 116.70644,88.412153 117.57689,88.718372 118.38391,89.182281 119.2093,89.594807 122.0956,91.037378 121.1221,90.437055 123.44891,92.538931 123.82417,93.278018 124.35341,93.957378 124.5747,94.756192 125.34609,97.540768 124.38343,100.8813 122.85273,103.221 122.08582,104.39323 118.90159,107.81981 117.99046,108.82418 117.1914,109.64559 116.42741,110.50264 115.59327,111.28841 114.96771,111.87769 114.1209,112.24795 113.61693,112.94407 113.47035,113.14656 114.1,113.50963 113.88861,113.64305 113.47292,113.90544 112.86902,113.89135 112.4151,113.70267 110.62174,112.95722 110.22493,110.90348 109.54432,109.37544 108.57267,104.54818 108.16954,103.43679 107.98842,98.135895 107.79743,92.546456 108.15841,87.880955 109.10954,82.342842 109.8606,77.969676 111.90393,70.112816 112.98539,65.778269 116.92117,54.822183 113.69697,63.055985 117.97349,53.70475 118.60153,52.331457 119.08687,50.894179 119.7477,49.536359 120.50728,47.975621 121.57581,46.61973 122.55565,45.202613 122.66192,45.151387 121.93745,43.648504 121.83118,43.69973 Z" />
    <path
       style="fill:#000000;stroke-width:0.264583"
       id="path435"
       d="M 82.342724,114.09489 C 82.830957,113.90698 83.319915,113.72102 83.808291,113.53349 84.068345,113.44757 84.305134,113.31122 84.546579,113.18542 84.671367,113.11331 84.792663,113.03544 84.904222,112.94387 84.932831,112.91862 84.954929,112.89575 84.968801,112.86157 80.990775,110.11843 83.835472,111.6111 82.801851,111.88982 82.689186,111.84351 82.558243,111.89337 82.418091,111.9348 81.878174,112.16122 81.350434,112.41642 80.823143,112.6707 80.332537,112.88947 79.84288,113.11035 79.353623,113.33211 79.122391,113.4716 78.893248,113.60904 78.643714,113.71539 77.702708,113.93328 79.711221,115.35145 80.306099,114.80249 80.56057,114.61783 80.814168,114.43348 81.054799,114.23075 81.416037,113.90366 81.79968,113.60321 82.15741,113.2721 82.48506,112.94917 82.835958,112.65331 83.197249,112.36921 83.473212,112.14794 83.743585,111.91995 84.017325,111.69596 84.223518,111.5169 84.447151,111.36146 84.669997,111.2045 84.795978,111.1146 84.917911,111.01972 85.046456,110.93329 85.208479,110.83625 85.350529,110.7113 85.503297,110.6008 85.626788,110.4923 85.772912,110.41863 85.905786,110.3237 86.040179,110.20882 86.180553,110.09811 86.303905,109.97137 86.451346,109.85066 86.617703,109.78896 86.578584,109.5788 86.445187,109.46365 86.311792,109.3485 86.178397,109.23334 86.178397,109.23334 85.895965,109.0566 85.895965,109.0566 V 109.0566 C 85.7199,108.97677 85.543836,108.89693 85.367772,108.8171 85.138661,108.80831 84.9808,108.89238 84.797854,109.02638 84.646179,109.12312 84.511538,109.24508 84.353619,109.33241 84.215252,109.42256 84.076478,109.51129 83.945245,109.61201 83.78954,109.72558 83.627967,109.82671 83.459472,109.92023 83.331951,110.00952 83.207801,110.10396 83.083116,110.19716 82.862422,110.36176 82.643259,110.52853 82.431489,110.70456 82.163977,110.93279 81.89465,111.15883 81.622671,111.38174 81.269289,111.67785 80.923875,111.98183 80.591617,112.30169 80.225589,112.62469 79.848362,112.93516 79.447019,113.21381 79.17762,113.39348 78.911301,113.57846 78.624485,113.73006 77.842162,114.14512 79.732795,115.26851 80.380289,114.87562 80.652704,114.76558 80.928003,114.66292 81.198698,114.55019 81.669,114.31043 82.147655,114.08842 82.624408,113.86181 83.149899,113.61952 83.670893,113.3609 84.217334,113.16906 84.31409,113.14421 84.520213,113.1503 84.566791,113.05013 85.299557,112.591 86.056863,113.6548 83.045902,111.75697 83.036451,111.76065 83.023817,111.76003 83.017549,111.768 82.921895,111.85489 82.816167,111.92697 82.699399,111.98381 82.480112,112.11938 82.246932,112.22973 82.009749,112.33029 81.531687,112.53718 81.046388,112.73199 80.544214,112.87264 80.544214,112.87264 82.342724,114.09489 82.342724,114.09489 Z" />
    <path
       style="fill:#000000;stroke-width:0.264583"
       id="path437"
       d="M 110.05273,114.49225 C 110.87305,114.44832 111.69452,114.43035 112.51583,114.41638 113.12647,114.39497 113.73533,114.35088 114.34146,114.27459 114.90101,114.21209 115.45451,114.1118 116.00959,114.0197 116.52305,113.93156 117.03793,113.85007 117.54962,113.75209 117.9186,113.67984 118.29084,113.62467 118.65996,113.55373 118.8898,113.50943 119.11833,113.46272 119.33868,113.38288 119.51698,113.32379 119.6932,113.24962 119.853,113.15045 119.99287,113.05992 120.14227,112.98324 120.27485,112.88207 120.42993,112.77666 120.38018,112.61014 120.38197,112.44873 120.41073,112.30789 120.52086,112.31313 120.6375,112.32728 120.64882,112.32837 120.68119,112.33642 120.67146,112.33054 118.63537,111.09955 119.12559,111.00166 117.54933,111.1574 116.74837,111.23642 115.96488,111.42406 115.18492,111.61516 114.33588,111.83294 113.48255,112.03357 112.62801,112.2285 111.82738,112.41819 111.02634,112.60602 110.22666,112.79972 109.48741,112.97576 108.74362,113.13321 108.00783,113.32342 107.49887,113.44913 106.98114,113.53425 106.46429,113.61995 106.21828,113.65488 105.96733,113.66998 105.72378,113.72046 105.66053,113.7056 105.59757,113.6878 105.5408,113.65609 106.98156,114.87349 106.80463,115.16448 107.77902,114.80931 108.20255,114.65303 108.63517,114.52251 109.0664,114.3894 109.85293,114.15822 110.64124,113.93042 111.43447,113.72299 112.19217,113.52093 112.96107,113.36634 113.73336,113.23243 114.33047,113.138 114.9224,113.01543 115.52083,112.92928 116.02973,112.86837 116.53643,112.79591 117.04215,112.71256 117.50099,112.64608 117.93989,112.50307 118.38084,112.36655 118.75748,112.24931 119.13277,112.12957 119.50216,111.99097 119.85505,111.86662 120.21454,111.76136 120.56468,111.62917 120.82955,111.52018 121.10784,111.43712 121.35103,111.2829 121.51636,111.08672 121.45634,111.18194 121.15173,110.91482 121.08471,110.85604 121.01908,110.7957 120.95276,110.73614 120.95276,110.73614 120.58472,110.48427 120.58472,110.48427 V 110.48427 C 120.28699,110.33549 119.99681,110.06913 119.64814,110.14361 119.35825,110.21559 119.09071,110.34844 118.80897,110.4457 118.457,110.57135 118.10255,110.68991 117.74597,110.80187 117.36629,110.92116 116.98542,111.03639 116.60515,111.15364 116.1611,111.2817 115.7087,111.37738 115.25386,111.45866 114.75248,111.54623 114.24702,111.60751 113.7432,111.67923 113.15206,111.77816 112.56505,111.90014 111.97431,112.00156 111.21075,112.1434 110.45322,112.31715 109.70849,112.53865 108.92038,112.76787 108.12983,112.98827 107.33894,113.20767 106.89047,113.3309 106.44149,113.45246 106.00186,113.6052 105.15199,113.87475 104.32428,114.13069 107.34051,115.06097 107.44058,115.08539 107.5433,115.09522 107.64605,115.08121 107.90643,115.06727 108.16656,115.03125 108.42539,115.00096 108.96626,114.92916 109.50472,114.84141 110.03889,114.72949 110.78364,114.57534 111.51746,114.3723 112.25961,114.20607 113.06421,114.02187 113.86706,113.83015 114.67095,113.64282 115.52133,113.44252 116.36907,113.23197 117.216,113.01751 117.97616,112.83123 118.73901,112.64377 119.51847,112.55814 121.00175,112.4064 120.83572,112.71408 118.67493,111.25027 118.66518,111.24366 118.69501,111.26259 118.70504,111.26875 118.78016,111.32734 118.89369,111.4243 118.78816,111.51032 118.63289,111.54487 118.46944,111.54271 118.33174,111.63142 118.1861,111.70604 118.04892,111.79526 117.90249,111.86849 117.73267,111.93527 117.56211,111.99883 117.38664,112.04978 117.16131,112.10303 116.93305,112.14351 116.70583,112.18776 116.33949,112.25258 115.9738,112.32087 115.60894,112.39379 115.09632,112.47862 114.58498,112.57038 114.07327,112.6605 113.52021,112.75048 112.96711,112.84065 112.41057,112.907 111.81931,112.97592 111.22602,113.0302 110.63114,113.05478 109.8083,113.08508 108.98559,113.12593 108.16202,113.12893 108.16202,113.12893 110.05273,114.49225 110.05273,114.49225 Z" />
    <path
       style="fill:#000000;stroke-width:0.264583"
       id="path439"
       d="M 69.404883,59.719006 C 69.886022,59.084463 70.3708,58.452567 70.843274,57.811516 71.226282,57.281944 71.604634,56.749034 71.982001,56.215435 72.310823,55.760744 72.586021,55.270614 72.894509,54.802198 73.210102,54.310539 73.539174,53.825922 73.909948,53.374067 74.311284,52.900151 74.744587,52.454476 75.21227,52.046102 75.629626,51.685658 76.078582,51.365313 76.550937,51.08159 76.990481,50.813168 77.461448,50.604007 77.929628,50.39194 78.274346,50.236559 78.633917,50.120925 78.997701,50.020463 79.287676,49.942842 79.585261,49.897384 79.879551,49.838861 80.186167,49.801039 80.483587,49.71797 80.78182,49.640243 81.136296,49.52361 81.496124,49.425595 81.856172,49.32808 82.221249,49.223466 82.597153,49.167248 82.966786,49.082033 83.350131,48.994139 83.736862,48.925495 84.124204,48.857852 84.445649,48.808436 84.770213,48.781591 85.094568,48.760012 85.339027,48.7295 85.584653,48.741755 85.830107,48.743809 86.078887,48.761641 86.325233,48.801853 86.572441,48.833846 86.769373,48.86771 86.966231,48.895351 87.16197,48.936288 87.403248,48.985196 87.637735,49.05793 87.867544,49.145131 87.919607,49.160559 88.245748,49.325283 88.260633,49.262844 88.096475,49.127999 87.932317,48.993157 87.768159,48.858315 87.768159,48.858315 87.113098,48.352995 87.113098,48.352995 V 48.352995 C 86.917143,48.208752 86.72119,48.064509 86.525236,47.920269 86.371318,47.834407 86.207882,47.773325 86.039607,47.720652 85.801167,47.643803 85.556645,47.587463 85.311442,47.536668 85.114687,47.501087 84.916467,47.474293 84.717905,47.451086 84.468247,47.421371 84.218922,47.381202 83.966443,47.387443 83.723307,47.385496 83.481343,47.39805 83.241003,47.43727 82.926078,47.470173 82.610835,47.506334 82.303495,47.585608 81.925389,47.660575 81.548652,47.742969 81.177274,47.846808 80.816335,47.942026 80.447802,48.00679 80.090295,48.115981 79.729694,48.21619 79.369705,48.31834 79.009506,48.419945 78.714562,48.495767 78.418133,48.561754 78.117233,48.609855 77.817942,48.667648 77.51524,48.714649 77.224447,48.808565 76.861481,48.923392 76.503174,49.053913 76.159949,49.219691 75.689022,49.44147 75.217763,49.665376 74.769749,49.931137 74.294266,50.226346 73.841247,50.556646 73.434603,50.942745 72.968063,51.367644 72.52183,51.80916 72.17008,52.337565 71.82069,52.812846 71.468312,53.286038 71.151138,53.783949 70.852061,54.255344 70.556206,54.7289 70.251359,55.196541 69.882456,55.733936 69.510348,56.268937 69.154809,56.815394 68.706526,57.470531 68.264621,58.129812 67.798539,58.772572 67.798539,58.772572 69.404883,59.719006 69.404883,59.719006 Z" />
  </g>
</svg>
